<svg width="171" height="171" viewBox="0 0 171 171" fill="none" xmlns="http://www.w3.org/2000/svg">
<path d="M64.125 7.125H21.375C17.5957 7.125 13.9711 8.62634 11.2987 11.2987C8.62634 13.9711 7.125 17.5957 7.125 21.375V114C7.125 117.779 8.62634 121.404 11.2987 124.076C13.9711 126.749 17.5957 128.25 21.375 128.25H64.125C67.9043 128.25 71.5289 126.749 74.2013 124.076C76.8737 121.404 78.375 117.779 78.375 114V21.375C78.375 17.5957 76.8737 13.9711 74.2013 11.2987C71.5289 8.62634 67.9043 7.125 64.125 7.125ZM64.125 106.875H21.375V21.375H64.125V106.875ZM149.625 92.625H92.625V106.875H149.625V149.625H64.125V142.5H42.75V149.625C42.75 153.404 44.2513 157.029 46.9237 159.701C49.5961 162.374 53.2207 163.875 57 163.875H149.625C153.404 163.875 157.029 162.374 159.701 159.701C162.374 157.029 163.875 153.404 163.875 149.625V106.875C163.875 103.096 162.374 99.4711 159.701 96.7987C157.029 94.1263 153.404 92.625 149.625 92.625ZM163.875 71.25L135.375 57L148.984 50.5163C144.892 40.8352 138.042 32.5722 129.287 26.7568C120.533 20.9414 110.26 17.8308 99.75 17.8125V7.125C116.757 7.125 133.067 13.881 145.093 25.9068C157.119 37.9325 163.875 54.243 163.875 71.25V71.25Z" fill="white"/>
</svg>
